<svg xmlns="http://www.w3.org/2000/svg" xmlns:xlink="http://www.w3.org/1999/xlink" width="1080" zoomAndPan="magnify" viewBox="0 0 810 809.999993" height="1080" preserveAspectRatio="xMidYMid meet" version="1.0"><defs><clipPath id="1298122954"><path d="M 0.585938 59.667969 L 809.457031 59.667969 L 809.457031 748.902344 L 0.585938 748.902344 Z M 0.585938 59.667969 " clip-rule="nonzero"/></clipPath></defs><g clip-path="url(#1298122954)"><path fill="#f03461" d="M 808.882812 705.21875 C 809.382812 719.628906 809.6875 734.300781 809.238281 748.902344 C 742.464844 748.84375 666.304688 745.078125 597.640625 722.636719 C 596.84375 681.480469 591.003906 640.421875 580.3125 600.664062 C 566.945312 550.964844 545.648438 502.820312 513.167969 462.898438 C 494.226562 439.617188 470.914062 418.882812 442.710938 408.613281 C 397.253906 392.058594 344.121094 405.855469 307.046875 436.929688 C 269.960938 468.007812 247.738281 514.140625 238.179688 561.566406 C 228.625 608.996094 228.289062 656.304688 233.277344 704.429688 C 193.265625 706.535156 168.625 708.644531 128.613281 710.753906 C 110.382812 711.714844 92.128906 712.675781 73.878906 712.335938 C 53.035156 711.949219 32.929688 710.222656 13.082031 706.820312 L 12.933594 702.015625 C 7.191406 629.855469 3.304688 557.542969 1.273438 485.183594 C 0.265625 449.378906 -0.273438 413.402344 4.40625 377.886719 C 17.375 279.421875 71.308594 188.199219 147.035156 123.9375 C 164.542969 109.074219 183.332031 95.46875 204.121094 85.699219 C 239.683594 68.980469 279.589844 64.132812 318.820312 61.695312 C 364.683594 58.84375 410.742188 58.996094 456.585938 62.144531 C 486.707031 64.214844 557.847656 85.160156 592.480469 121.707031 C 657.390625 190.199219 712.460938 268.804688 747.542969 356.40625 C 791.664062 466.550781 804.75 586.628906 808.882812 705.21875 " fill-opacity="1" fill-rule="nonzero"/></g><path fill="#f79594" d="M 718.25 744.84375 C 684.011719 741.226562 634.261719 734.605469 597.640625 722.636719 C 596.84375 681.480469 591.003906 640.421875 580.3125 600.664062 C 566.945312 550.964844 545.648438 502.820312 513.167969 462.898438 C 494.226562 439.617188 470.914062 418.882812 442.710938 408.613281 C 397.253906 392.058594 344.121094 405.855469 307.046875 436.929688 C 269.960938 468.007812 247.738281 514.140625 238.179688 561.566406 C 228.625 608.996094 228.289062 656.304688 233.277344 704.429688 C 193.265625 706.535156 168.625 708.644531 128.613281 710.753906 C 110.382812 711.714844 92.128906 712.675781 73.878906 712.335938 C 73.855469 712.335938 73.828125 712.335938 73.804688 712.335938 L 71.9375 708.757812 C 62.625 591.5 53.8125 470.117188 93.257812 359.300781 C 131.214844 252.644531 220.074219 159.855469 331.339844 138.976562 C 398.523438 126.375 469.824219 140.675781 528.671875 175.453125 C 587.511719 210.242188 633.863281 264.796875 661.722656 327.214844 C 690.09375 390.773438 699.550781 460.949219 706.871094 530.167969 C 711.324219 572.257812 715.105469 614.425781 717.421875 656.691406 C 719.023438 686.011719 719.890625 715.546875 718.25 744.84375 " fill-opacity="1" fill-rule="nonzero"/><path fill="#f47263" d="M 513.167969 462.898438 C 494.226562 439.617188 470.914062 418.882812 442.710938 408.613281 C 397.253906 392.058594 344.121094 405.855469 307.046875 436.929688 C 269.960938 468.007812 247.738281 514.140625 238.179688 561.566406 C 228.625 608.996094 228.289062 656.304688 233.277344 704.429688 C 194.878906 706.453125 171.855469 708.480469 133.457031 710.5 C 127.332031 686.898438 123.15625 662.640625 122.613281 635.964844 C 121.15625 563.71875 130.542969 491.277344 150.191406 421.746094 C 161.101562 383.160156 172.121094 343.71875 192.339844 309.078125 C 243.671875 221.167969 344.882812 205.09375 378.609375 204.582031 C 395.257812 204.328125 411.851562 206.921875 428.0625 210.726562 C 491.300781 225.5625 551.730469 261.113281 585.695312 316.488281 C 602.527344 343.921875 612.320312 375.03125 620.796875 406.082031 C 642.90625 487.070312 657.15625 570.203125 663.277344 653.9375 C 665.277344 681.316406 666.367188 709.023438 663.960938 736.308594 C 647.332031 732.785156 615.0625 728.332031 597.640625 722.636719 C 596.84375 681.480469 591.003906 640.421875 580.3125 600.664062 C 566.945312 550.964844 545.648438 502.820312 513.167969 462.898438 " fill-opacity="1" fill-rule="nonzero"/><path fill="#fbc450" d="M 637.550781 729.941406 C 629.46875 727.757812 605.925781 725.34375 597.640625 722.636719 C 596.84375 681.480469 591.003906 640.421875 580.3125 600.664062 C 566.945312 550.964844 545.648438 502.820312 513.167969 462.898438 C 494.226562 439.617188 470.914062 418.882812 442.710938 408.613281 C 397.253906 392.058594 344.121094 405.855469 307.046875 436.929688 C 269.960938 468.007812 247.738281 514.140625 238.179688 561.566406 C 228.625 608.996094 228.289062 656.304688 233.277344 704.429688 C 214.617188 705.410156 211.316406 706.398438 192.65625 707.378906 C 190.75 690.949219 190.542969 674.277344 190.484375 657.710938 C 190.257812 586.894531 192.117188 515.152344 211.464844 447.027344 C 216.902344 427.878906 223.726562 409.058594 232.96875 391.433594 C 258.183594 343.339844 302.898438 304.667969 355.636719 291.753906 C 408.382812 278.84375 468.304688 293.90625 505.128906 333.8125 C 513.941406 343.371094 521.367188 354.109375 528.539062 364.941406 C 548.65625 395.328125 567.109375 426.867188 582.523438 459.878906 C 621.757812 543.898438 640.738281 637.269531 637.550781 729.941406 " fill-opacity="1" fill-rule="nonzero"/><path fill="#ffffff" d="M 585.136719 458.65625 C 570.800781 427.941406 553.066406 396.769531 530.941406 363.351562 C 524.347656 353.398438 516.542969 341.933594 507.25 331.863281 C 470.582031 292.125 410.804688 275.28125 354.953125 288.953125 C 303.589844 301.527344 257.03125 339.339844 230.417969 390.089844 C 221.933594 406.265625 214.824219 424.632812 208.691406 446.238281 C 188.828125 516.191406 187.382812 589.066406 187.605469 657.714844 C 187.65625 674.574219 187.863281 691.078125 189.796875 707.714844 L 195.523438 707.050781 C 193.625 690.710938 193.421875 674.382812 193.367188 657.703125 C 193.148438 589.460938 194.582031 517.042969 214.238281 447.8125 C 220.261719 426.59375 227.21875 408.589844 235.519531 392.769531 C 261.378906 343.453125 306.539062 306.742188 356.328125 294.558594 C 410.167969 281.371094 467.746094 297.550781 503.007812 335.769531 C 512.015625 345.53125 519.667969 356.769531 526.136719 366.535156 C 548.105469 399.707031 565.695312 430.644531 579.914062 461.101562 C 618.910156 544.609375 637.84375 637.535156 634.671875 729.839844 L 640.425781 730.035156 C 643.628906 636.832031 624.511719 542.992188 585.136719 458.65625 Z M 666.148438 653.726562 C 660.023438 569.9375 645.699219 486.359375 623.574219 405.324219 C 613.945312 370.066406 604.242188 341.214844 588.152344 314.980469 C 556.433594 263.273438 498.324219 224.25 428.722656 207.917969 C 409.917969 203.511719 393.523438 201.480469 378.566406 201.699219 C 373.335938 201.78125 249.871094 204.835938 189.851562 307.628906 C 169.683594 342.175781 158.5625 381.539062 147.800781 419.605469 L 147.421875 420.960938 C 127.582031 491.144531 118.269531 563.503906 119.730469 636.027344 C 120.226562 660.480469 123.699219 684.378906 130.667969 711.226562 L 136.246094 709.777344 C 129.398438 683.375 125.980469 659.90625 125.496094 635.90625 C 124.042969 563.960938 133.285156 492.164062 152.964844 422.53125 L 153.351562 421.175781 C 164.003906 383.449219 175.027344 344.449219 194.835938 310.53125 C 253.226562 210.511719 373.558594 207.542969 378.65625 207.46875 C 393.121094 207.253906 409.070312 209.226562 427.40625 213.53125 C 495.519531 229.511719 552.320312 267.582031 583.238281 317.992188 C 598.976562 343.644531 608.523438 372.0625 618.011719 406.84375 C 640.039062 487.519531 654.300781 570.726562 660.40625 654.144531 C 662.175781 678.410156 663.644531 707.121094 661.089844 736.050781 L 666.832031 736.5625 C 669.425781 707.214844 667.945312 678.21875 666.148438 653.726562 Z M 721.125 745.007812 L 715.371094 744.683594 C 717.15625 712.875 715.863281 681.03125 714.542969 656.84375 C 712.464844 618.964844 709.125 578.8125 704.007812 530.472656 C 696.886719 463.191406 687.554688 392.160156 659.089844 328.394531 C 630.746094 264.886719 583.910156 211.457031 527.203125 177.9375 C 467.816406 142.832031 396.613281 129.664062 331.875 141.8125 C 228.921875 161.128906 136.328125 246.875 95.96875 360.269531 C 56.128906 472.210938 65.988281 597.410156 74.765625 707.949219 L 76.363281 711.007812 L 73.84375 712.316406 L 73.878906 715.222656 L 72.132812 715.222656 L 71.246094 713.671875 L 69.113281 709.570312 L 69.0625 708.988281 C 60.226562 597.734375 50.210938 471.636719 90.542969 358.332031 C 131.574219 243.050781 225.882812 155.835938 330.808594 136.148438 C 396.90625 123.746094 469.558594 137.167969 530.140625 172.980469 C 587.859375 207.101562 635.527344 261.460938 664.355469 326.046875 C 693.164062 390.585938 702.570312 462.121094 709.738281 529.863281 C 714.863281 578.304688 718.21875 618.554688 720.296875 656.53125 C 721.632812 680.867188 722.929688 712.910156 721.125 745.007812 " fill-opacity="1" fill-rule="nonzero"/></svg>